<?xml version="1.0" encoding="UTF-8"?>
<svg id="Ebene_1" xmlns="http://www.w3.org/2000/svg" version="1.1" viewBox="0 0 45.8 7.9">
  <!-- Generator: Adobe Illustrator 29.5.0, SVG Export Plug-In . SVG Version: 2.1.0 Build 137)  -->
  <defs>
    <style>
      .st0 {
        fill: #fff;
      }
    </style>
  </defs>
  <path class="st0" d="M1.9,5.8c-.2,0-.4-.2-.6-.4-.1-.2-.2-.4-.2-.7h1.1c0,.2,0,.3.2.4,0,0,.2.1.4.1s.3,0,.4-.1c0,0,.1-.2.1-.3s0-.2-.1-.3-.2-.1-.3-.2c-.1,0-.2,0-.4-.2-.3,0-.5-.2-.7-.3s-.3-.2-.4-.4c-.1-.2-.2-.4-.2-.6,0-.4.1-.7.4-.9s.7-.3,1.1-.3.8.1,1.1.3.4.5.5.9h-1.1c0-.1,0-.2-.1-.3,0,0-.2-.1-.4-.1s-.2,0-.3,0c0,0-.1.2-.1.3s0,.2.2.3c.1,0,.3.2.6.2.3,0,.5.2.7.3.2,0,.3.2.4.4.1.2.2.4.2.6s0,.5-.2.7c-.1.2-.3.4-.5.5s-.5.2-.8.2-.6,0-.8-.2Z"/>
  <path class="st0" d="M5,2.1c-.1-.1-.2-.2-.2-.4s0-.3.2-.4c.1-.1.3-.2.4-.2s.3,0,.4.2c.1.1.2.2.2.4s0,.3-.2.4c-.1.1-.3.2-.4.2s-.3,0-.4-.2ZM6,2.6v3.3h-1v-3.3h1Z"/>
  <path class="st0" d="M12,2.9c.2.3.4.6.4,1v2h-1v-1.8c0-.2,0-.4-.2-.5-.1-.1-.3-.2-.5-.2s-.4,0-.5.2c-.1.1-.2.3-.2.5v1.8h-1v-1.8c0-.2,0-.4-.2-.5-.1-.1-.3-.2-.5-.2s-.4,0-.5.2c-.1.1-.2.3-.2.5v1.8h-1v-3.3h1v.4c.1-.1.2-.3.4-.3.2,0,.4-.1.6-.1s.5,0,.7.2c.2.1.4.3.5.5.1-.2.3-.3.5-.5.2-.1.4-.2.7-.2.4,0,.7.1,1,.4Z"/>
  <path class="st0" d="M14.5,2.7c.2,0,.4-.1.6-.1s.5,0,.8.2c.2.1.4.3.5.6.1.3.2.6.2.9s0,.6-.2.9c-.1.3-.3.5-.5.6-.2.1-.5.2-.8.2s-.4,0-.6-.1c-.2,0-.3-.2-.4-.4v2.1h-1V2.6h1v.5c0-.2.2-.3.4-.4ZM15.3,3.6c-.1-.1-.3-.2-.5-.2s-.4,0-.5.2c-.1.1-.2.3-.2.6s0,.5.2.6c.1.1.3.2.5.2s.4,0,.5-.2c.1-.2.2-.4.2-.6s0-.5-.2-.6Z"/>
  <path class="st0" d="M18.2,1.5v4.4h-1V1.5h1Z"/>
  <path class="st0" d="M22,4.5h-2.3c0,.2,0,.4.2.5.1.1.3.2.4.2.3,0,.4-.1.5-.3h1.1c0,.2-.2.4-.3.6-.1.2-.3.3-.5.4-.2,0-.5.1-.7.1s-.6,0-.9-.2c-.3-.1-.5-.3-.6-.6-.1-.3-.2-.6-.2-.9s0-.7.2-.9c.1-.3.3-.5.6-.6.3-.1.6-.2.9-.2s.6,0,.9.2c.3.1.4.3.6.6.1.3.2.5.2.9s0,.2,0,.3ZM21,3.9c0-.2,0-.3-.2-.4s-.3-.2-.5-.2-.3,0-.4.2-.2.2-.2.4h1.3Z"/>
  <path class="st0" d="M26.9,1.7v.8h-1.1v3.4h-1v-3.4h-1.1v-.8h3.3Z"/>
  <path class="st0" d="M30.4,2.9c.2.3.3.6.3,1v2h-1v-1.8c0-.2,0-.4-.2-.5s-.3-.2-.5-.2-.4,0-.5.2c-.1.1-.2.3-.2.5v1.8h-1V1.5h1v1.5c.1-.1.2-.3.4-.4.2,0,.4-.1.6-.1.4,0,.7.1.9.4Z"/>
  <path class="st0" d="M34.6,4.5h-2.3c0,.2,0,.4.2.5.1.1.3.2.4.2.3,0,.4-.1.5-.3h1.1c0,.2-.2.4-.3.6-.1.2-.3.3-.5.4-.2,0-.5.1-.7.1s-.6,0-.9-.2c-.3-.1-.5-.3-.6-.6-.1-.3-.2-.6-.2-.9s0-.7.2-.9c.1-.3.3-.5.6-.6.3-.1.6-.2.9-.2s.6,0,.9.2c.3.1.4.3.6.6.1.3.2.5.2.9s0,.2,0,.3ZM33.6,3.9c0-.2,0-.3-.2-.4s-.3-.2-.5-.2-.3,0-.4.2-.2.2-.2.4h1.3Z"/>
  <path class="st0" d="M40.4,2.9c.2.3.4.6.4,1v2h-1v-1.8c0-.2,0-.4-.2-.5-.1-.1-.3-.2-.5-.2s-.4,0-.5.2c-.1.1-.2.3-.2.5v1.8h-1v-1.8c0-.2,0-.4-.2-.5-.1-.1-.3-.2-.5-.2s-.4,0-.5.2c-.1.1-.2.3-.2.5v1.8h-1v-3.3h1v.4c.1-.1.2-.3.4-.3.2,0,.4-.1.6-.1s.5,0,.7.2c.2.1.4.3.5.5.1-.2.3-.3.5-.5s.4-.2.7-.2c.4,0,.7.1,1,.4Z"/>
  <path class="st0" d="M44.7,4.5h-2.3c0,.2,0,.4.2.5.1.1.3.2.4.2.3,0,.4-.1.5-.3h1.1c0,.2-.2.4-.3.6-.1.2-.3.3-.5.4-.2,0-.5.1-.7.1s-.6,0-.9-.2c-.3-.1-.5-.3-.6-.6-.1-.3-.2-.6-.2-.9s0-.7.2-.9c.1-.3.3-.5.6-.6.3-.1.6-.2.9-.2s.6,0,.9.2c.3.1.4.3.6.6.1.3.2.5.2.9s0,.2,0,.3ZM43.6,3.9c0-.2,0-.3-.2-.4s-.3-.2-.5-.2-.3,0-.4.2-.2.2-.2.4h1.3Z"/>
</svg>